<?xml version="1.0" encoding="UTF-8" standalone="no"?>
<svg
   xmlns:svg="http://www.w3.org/2000/svg"
   xmlns="http://www.w3.org/2000/svg"
   xmlns:xlink="http://www.w3.org/1999/xlink"
   id="svg517"
   version="1.1"
   height="3000"
   width="3400">
  <title
     id="title4595">Orion logo</title>
  <defs
     id="defs100">
    <linearGradient
       id="linearGradient6770">
      <stop
         id="stop6766"
         offset="0"
         style="stop-color:#ebebfe;stop-opacity:1" />
      <stop
         style="stop-color:#c5e1ff;stop-opacity:0.99215686"
         offset="0"
         id="stop6934" />
      <stop
         id="stop4523"
         offset="0.17495288"
         style="stop-color:#9fcdf6;stop-opacity:1" />
      <stop
         style="stop-color:#73b6ec;stop-opacity:0.99215686;"
         offset="0.44132331"
         id="stop4525" />
      <stop
         id="stop6768"
         offset="1"
         style="stop-color:#007cd5;stop-opacity:1" />
    </linearGradient>
    <linearGradient
       id="linearGradient5123">
      <stop
         id="stop5119"
         offset="0"
         style="stop-color:#ff2840;stop-opacity:1;" />
      <stop
         style="stop-color:#ff2840;stop-opacity:0.7254902;"
         offset="0.32694679"
         id="stop6638" />
      <stop
         style="stop-color:#ff2840;stop-opacity:0.30588235;"
         offset="0.74013829"
         id="stop6616" />
      <stop
         id="stop6618"
         offset="0.85782373"
         style="stop-color:#ff2840;stop-opacity:0.17647059;" />
      <stop
         id="stop5121"
         offset="1"
         style="stop-color:#ff2840;stop-opacity:0;" />
    </linearGradient>
    <linearGradient
       gradientTransform="matrix(1.0094256,0,0,1.0094256,-22.808369,-9.7379667)"
       y2="-862.02734"
       x2="1896.2848"
       y1="31.359186"
       x1="919.21777"
       gradientUnits="userSpaceOnUse"
       id="linearGradient6620"
       xlink:href="#linearGradient5123" />
    <radialGradient
       r="287.5821"
       fy="374.30948"
       fx="1097.3916"
       cy="374.30948"
       cx="1097.3916"
       gradientTransform="matrix(1.1704116,0,0,1.1851615,-194.83271,-79.819656)"
       gradientUnits="userSpaceOnUse"
       id="radialGradient6808"
       xlink:href="#linearGradient6770" />
  </defs>
  <g
     transform="translate(0,1944)"
     id="surface396">
    <path
       id="path442"
       d="M 1550.9696,-1829.2244 50.423383,769.82431 c -30.936612,53.62886 -30.936612,119.66414 0,173.26638 30.963147,53.60231 88.144297,86.65961 150.070587,86.65961 H 3201.5864 c 61.8998,0 119.1074,-33.0573 150.044,-86.65961 30.9632,-53.60224 30.9632,-119.63752 0,-173.26638 L 1851.0842,-1829.2244 c -30.9632,-53.6288 -88.1442,-86.6331 -150.044,-86.6331 -61.8998,0 -119.1074,33.0043 -150.0706,86.6331 z m 0,0"
       style="fill:#121851;fill-opacity:1;stroke:#121851;stroke-width:6.78644323;stroke-linecap:butt;stroke-linejoin:miter;stroke-miterlimit:10;stroke-opacity:1" />
    <path
       id="path444"
       d="m 998.45779,247.74534 c 79.02491,0 146.96891,28.65684 203.85831,85.99699 56.863,57.31362 85.2812,127.21927 85.2812,209.63745 0,81.70246 -28.047,150.83934 -84.1678,207.41066 -56.0941,56.57138 -124.1972,84.85707 -204.20293,84.85707 -83.87626,0 -153.5433,-29.02792 -209.00132,-87.13683 -55.48448,-58.10892 -83.21347,-127.11327 -83.21347,-207.01306 0,-53.52278 12.91018,-102.75096 38.73046,-147.65815 25.84684,-44.88064 61.36955,-80.45648 106.59488,-106.7274 45.22532,-26.24446 93.92333,-39.36673 146.12067,-39.36673"
       style="fill:url(#radialGradient6808);fill-opacity:1;fill-rule:nonzero;stroke:none;stroke-width:6.78644323" />
    <path
       id="path448"
       d="m 1469.2408,576.88787 h 21.4727 c 21.8173,0 36.8217,-2.86303 45.0397,-8.5891 8.2179,-5.69955 12.3534,-15.16346 12.3534,-28.36521 0,-7.84682 -2.0412,-14.65978 -6.1237,-20.43885 -4.0559,-5.80559 -9.5169,-9.96759 -16.3564,-12.51251 -6.8394,-2.5184 -19.3785,-3.76436 -37.5905,-3.76436 h -18.7952 z m -67.4404,-140.10294 h 72.106 c 39.4993,0 67.5994,3.55227 84.3534,10.60381 16.754,7.07805 30.2209,18.79528 40.427,35.17816 10.2062,16.40942 15.296,35.8144 15.296,58.21496 0,23.54048 -5.6464,43.23708 -16.913,59.03676 -11.2666,15.85272 -28.2327,27.80852 -50.9249,35.92043 l 84.698,159.03077 h -74.4123 l -80.6951,-151.50205 h -6.4947 v 151.50205 h -67.4404 z m 0,0"
       style="fill:#ffffff;fill-opacity:1;fill-rule:nonzero;stroke:none;stroke-width:6.78644323;stroke-linecap:butt;stroke-linejoin:miter;stroke-miterlimit:10;stroke-opacity:1" />
    <path
       id="path450"
       d="m 1725.323,436.7849 h 67.4402 v 357.98488 h -67.4402 z m 0,0"
       style="fill:#ffffff;fill-opacity:1;fill-rule:nonzero;stroke:none;stroke-width:6.78644323;stroke-linecap:butt;stroke-linejoin:miter;stroke-miterlimit:10;stroke-opacity:1" />
    <path
       id="path452"
       d="m 2057.0103,494.39013 c -33.0839,0 -60.8924,11.50519 -83.452,34.56845 -22.533,23.01032 -33.7996,52.30339 -33.7996,87.79961 0,39.60527 14.1825,70.91304 42.5742,93.92335 22.056,18.0265 47.3461,27.03971 75.8969,27.03971 32.2886,0 59.779,-11.69067 82.4712,-35.0456 22.7186,-23.38141 34.0648,-52.17078 34.0648,-86.36808 0,-34.09129 -11.4257,-62.90714 -34.3034,-86.50069 -22.8777,-23.61994 -50.6862,-35.41675 -83.4521,-35.41675 m 0.9809,-66.40636 c 50.5006,0 93.8967,18.3181 130.2413,54.95424 36.3447,36.60974 54.5037,81.25177 54.5037,133.95278 0,52.17078 -17.9205,96.33568 -53.7878,132.49465 -35.841,36.13253 -79.3432,54.21201 -130.4801,54.21201 -53.5757,0 -98.0852,-18.55664 -133.5285,-55.67 -35.4433,-37.11336 -53.1516,-81.19871 -53.1516,-132.25611 0,-34.19729 8.2445,-65.66414 24.7598,-94.32097 16.489,-28.70985 39.2077,-51.42848 68.1031,-68.20905 28.8953,-16.78057 59.9911,-25.15755 93.3401,-25.15755"
       style="fill:#ffffff;fill-opacity:1;fill-rule:nonzero;stroke:none;stroke-width:6.78644323;stroke-opacity:1" />
    <path
       id="path456"
       d="m 2326.7714,436.78493 h 63.9675 l 155.4786,235.59032 V 436.78493 h 67.4403 V 794.76982 H 2549.213 L 2394.2118,559.94827 v 234.82155 h -67.4404 z m 0,0"
       style="fill:#ffffff;fill-opacity:1;fill-rule:nonzero;stroke:none;stroke-width:6.78644323;stroke-linecap:butt;stroke-linejoin:miter;stroke-miterlimit:10;stroke-opacity:1" />
    <path
       id="path4562"
       d="m 1284.3624,-358.19876 c 315.5868,-220.84969 527.8657,-335.78369 727.5644,-425.50568 l -6.2125,242.02215 c -213.8738,89.31295 -480.1625,233.45969 -722.364,382.43929 z"
       style="fill:#360054;fill-opacity:0.58608063;stroke:none;stroke-width:1px;stroke-linecap:butt;stroke-linejoin:miter;stroke-opacity:1" />
    <path
       id="path458"
       d="M 2016.6389,-784.71715 C 1195.5323,-432.803 -73.694286,672.34873 595.59222,784.40458 l 7.2636,-18.68925 C 9.3336408,588.28696 1365.2703,-272.21282 2005.7143,-541.68229 Z"
       style="fill:url(#linearGradient6620);fill-opacity:1;fill-rule:nonzero;stroke:#882049;stroke-width:6.78636837;stroke-linecap:butt;stroke-linejoin:miter;stroke-miterlimit:10;stroke-dasharray:none;stroke-opacity:0" />
    <path
       id="path460"
       d="m 2309.3017,-671.26092 c 0,0 -231.9585,-19.74964 -233.5226,-19.85572 -16.648,-7.18408 -26.536,-16.83346 -33.8527,-33.08392 -0.1588,-1.59056 -21.0486,-216.76853 -21.0486,-216.76853 -0.2116,-2.14728 -2.0148,-3.76433 -4.1355,-3.76433 -2.1472,0 -3.9233,1.61705 -4.1354,3.76433 0,0 -20.8101,214.19716 -20.9691,215.81421 -7.7408,16.78062 -18.3977,26.77466 -36.5036,34.25032 -1.4845,0.13236 -230.9512,19.64364 -230.9512,19.64364 -2.1472,0.18527 -3.8173,1.98814 -3.8173,4.13542 0,2.17379 1.6701,3.94991 3.8173,4.13557 0,0 228.6184,19.43148 230.0764,19.56399 18.9807,7.58174 29.5581,17.44327 37.4314,34.80698 0.1588,1.59062 20.9161,215.36359 20.9161,215.36359 0.2118,2.1207 1.9882,3.73783 4.1354,3.73783 2.1207,0 3.9234,-1.61713 4.1355,-3.73783 0,0 20.8366,-214.72736 20.9956,-216.29133 7.4491,-16.83355 17.3107,-26.35057 34.8601,-33.66716 1.511,-0.10586 232.5682,-19.77607 232.5682,-19.77607 2.1472,-0.18596 3.8174,-1.96178 3.8174,-4.13557 0,-2.14728 -1.6702,-3.94991 -3.8174,-4.13542"
       style="fill:#ffffff;fill-opacity:1;fill-rule:nonzero;stroke:none;stroke-width:6.78644323" />
    <path
       id="path464"
       d="m 1931.5937,-476.17728 c 0,0 -231.9585,-19.74961 -233.5226,-19.88211 -16.6481,-7.15759 -26.5095,-16.80704 -33.8262,-33.05735 -0.1588,-1.59062 -21.0751,-216.79509 -21.0751,-216.79509 -0.2117,-2.12072 -1.9882,-3.73792 -4.1355,-3.73792 -2.1207,0 -3.9233,1.6172 -4.1354,3.73792 0,0 -20.81,214.19715 -20.9691,215.8407 -7.7142,16.78055 -18.3711,26.77466 -36.4771,34.25032 -1.5111,0.13235 -230.9777,19.64353 -230.9777,19.64353 -2.1472,0.18528 -3.7909,1.98828 -3.7909,4.13549 0,2.14728 1.6437,3.94998 3.7909,4.13549 0,0 228.6448,19.43149 230.1028,19.53756 18.9543,7.60825 29.5581,17.44329 37.405,34.83356 0.1588,1.59055 20.9161,215.33705 20.9161,215.33705 0.2117,2.12071 2.0147,3.73783 4.1354,3.73783 2.1473,0 3.9235,-1.61712 4.1355,-3.73783 0,0 20.8631,-214.70081 21.0221,-216.29144 7.4227,-16.80704 17.3107,-26.3505 34.8601,-33.64058 1.5111,-0.13236 232.5417,-19.77615 232.5417,-19.77615 2.1473,-0.18527 3.8174,-1.98821 3.8174,-4.13549 0,-2.14721 -1.6701,-3.94991 -3.8174,-4.13549"
       style="fill:#ffffff;fill-opacity:1;fill-rule:nonzero;stroke:none;stroke-width:6.78644323" />
    <path
       id="path468"
       d="m 1566.3717,-252.06559 c 0,0 -231.9585,-19.72307 -233.549,-19.85565 -16.6481,-7.18409 -26.5097,-16.83354 -33.8263,-33.05742 -0.1588,-1.61705 -21.0485,-216.79498 -21.0485,-216.79498 -0.239,-2.1473 -2.0149,-3.76434 -4.162,-3.76434 -2.1208,0 -3.897,1.61704 -4.1091,3.76434 0,0 -20.81,214.19711 -20.969,215.84066 -7.7408,16.75404 -18.3976,26.77466 -36.5036,34.22382 -1.5111,0.13235 -230.95117,19.64357 -230.95117,19.64357 -2.17369,0.18527 -3.81734,1.98828 -3.81734,4.13549 0,2.17378 1.64365,3.97641 3.81734,4.13549 0,0 228.61837,19.45799 230.07627,19.56406 18.9809,7.58175 29.5582,17.41678 37.4315,34.80706 0.1324,1.61705 20.916,215.363492 20.916,215.363492 0.2118,2.120762 1.9883,3.737836 4.1091,3.737836 2.1471,0 3.9233,-1.617074 4.162,-3.737836 0,0 20.8365,-214.727262 20.9955,-216.291302 7.4493,-16.83362 17.3107,-26.35058 34.86,-33.64067 1.5111,-0.15877 232.5683,-19.80264 232.5683,-19.80264 2.1473,-0.15877 3.8174,-1.96171 3.8174,-4.13549 0,-2.14721 -1.6701,-3.94992 -3.8174,-4.13549"
       style="fill:#ffffff;fill-opacity:1;fill-rule:nonzero;stroke:none;stroke-width:6.78644323" />
    <path
       id="path472"
       d="m 1484.9874,-1332.7271 -17.3903,-2.7305 c -24.8394,-3.7113 -24.8394,-3.7113 -28.5508,-27.8085 l -3.0751,-18.4772 c -0.2653,-1.6171 -1.6435,-2.7835 -3.2606,-2.7835 -1.6437,0 -3.0222,1.193 -3.2872,2.8101 l -2.6244,16.2767 c -4.0029,25.8734 -4.0029,25.8734 -28.922,29.8233 l -17.4433,2.8896 c -1.617,0.2653 -2.7834,1.6436 -2.7834,3.2607 0,1.6171 1.1664,2.9955 2.757,3.2606 l 18.3446,3.2077 c 23.9381,3.8968 23.9381,3.8968 27.835,28.5773 l 2.863,17.2842 c 0.2654,1.5905 1.6437,2.7835 3.2607,2.7835 1.6171,0 2.9955,-1.1664 3.2606,-2.757 l 3.2872,-19.4051 c 3.6053,-22.9572 3.6053,-22.9572 27.4109,-26.642 l 18.3447,-3.0222 c 1.617,-0.2652 2.7833,-1.6699 2.7833,-3.287 0,-1.6171 -1.1928,-2.9956 -2.8099,-3.2607"
       style="fill:#ffffff;fill-opacity:1;fill-rule:nonzero;stroke:none;stroke-width:6.78644323" />
    <path
       id="path476"
       d="m 2024.5626,-1186.0763 -17.3902,-2.7305 c -24.8395,-3.7114 -24.8395,-3.7114 -28.5773,-27.8085 l -3.0486,-18.4772 c -0.2653,-1.617 -1.6436,-2.7834 -3.2607,-2.7834 -1.617,0 -3.022,1.1928 -3.2872,2.8099 l -2.6244,16.2769 c -4.003,25.8733 -4.003,25.8733 -28.9484,29.7966 l -17.4168,2.9162 c -1.6171,0.2653 -2.7834,1.6436 -2.7834,3.2606 0,1.6171 1.1398,2.9956 2.7569,3.2872 l 18.3446,3.1811 c 23.9381,3.8969 23.9381,3.8969 27.835,28.5774 l 2.8365,17.2842 c 0.2654,1.5905 1.6702,2.7835 3.2872,2.7835 1.5905,0 2.9957,-1.1664 3.2607,-2.757 l 3.2872,-19.405 c 3.6052,-22.9573 3.6052,-22.9573 27.4109,-26.6421 l 18.3446,-3.0221 c 1.5905,-0.2654 2.7835,-1.6701 2.7835,-3.2872 0,-1.6436 -1.2195,-3.0221 -2.8101,-3.2606"
       style="fill:#ffffff;fill-opacity:1;fill-rule:nonzero;stroke:none;stroke-width:6.78644323" />
    <path
       id="path480"
       d="m 2586.2469,-123.54729 -17.3903,-2.73052 c -24.8394,-3.7113 -24.8394,-3.7113 -28.5508,-27.80846 l -3.0751,-18.47717 c -0.2382,-1.61713 -1.6435,-2.78353 -3.2606,-2.78353 -1.6171,0 -2.9956,1.19297 -3.2607,2.78353 l -2.651,16.30331 c -4.0029,25.87332 -4.0029,25.87332 -28.9219,29.79677 l -17.4433,2.91607 c -1.6171,0.26535 -2.7836,1.64355 -2.7836,3.26069 0,1.61707 1.1665,2.99553 2.7571,3.26061 l 18.3447,3.20767 c 23.938,3.89692 23.938,3.89692 27.8349,28.577303 l 2.8631,17.257729 c 0.2653,1.617073 1.6436,2.809997 3.2607,2.809997 1.6171,0 2.9955,-1.166454 3.2606,-2.783527 l 3.2872,-19.378485 c 3.6053,-22.983727 3.6053,-22.983727 27.4109,-26.642077 l 18.3711,-3.02208 c 1.5906,-0.26535 2.757,-1.64361 2.757,-3.28714 0,-1.61714 -1.193,-2.99562 -2.81,-3.26069"
       style="fill:#ffffff;fill-opacity:1;fill-rule:nonzero;stroke:none;stroke-width:6.78644323;stroke-opacity:1" />
    <path
       id="path484"
       d="m 2619.4633,263.83667 -17.3902,-2.73053 c -24.8395,-3.68476 -24.8395,-3.68476 -28.5774,-27.80846 l -3.0485,-18.50365 c -0.2654,-1.5906 -1.6436,-2.75699 -3.2607,-2.75699 -1.6436,0 -3.0221,1.19293 -3.2873,2.78346 l -2.6244,16.30341 c -4.0028,25.87332 -4.0028,25.87332 -28.9483,29.79669 l -17.4434,2.91607 c -1.5905,0.26536 -2.7569,1.61708 -2.7569,3.26069 0,1.61707 1.1398,2.99553 2.7569,3.28714 l 18.3447,3.18115 c 23.9381,3.89691 23.9381,3.89691 27.8085,28.57731 l 2.8629,17.25772 c 0.2655,1.61707 1.6437,2.80999 3.2873,2.80999 1.5906,0 2.9692,-1.16639 3.2607,-2.78353 l 3.2872,-19.40494 c 3.6052,-22.95726 3.6052,-22.95726 27.4108,-26.64209 l 18.3447,-2.99561 c 1.5906,-0.26535 2.7834,-1.67007 2.757,-3.28714 0,-1.64361 -1.193,-3.02214 -2.7836,-3.26069"
       style="fill:#ffffff;fill-opacity:1;fill-rule:nonzero;stroke:none;stroke-width:6.78644323" />
    <path
       id="path488"
       d="m 663.1915,485.19138 -17.39026,-2.73053 c -24.8394,-3.68483 -24.8394,-3.68483 -28.5773,-27.80847 l -3.04854,-18.50371 c -0.26536,-1.59053 -1.64361,-2.75698 -3.26068,-2.75698 -1.61707,0 -2.99561,1.16645 -3.26068,2.78352 l -2.65098,16.30334 c -4.00293,25.87331 -4.00293,25.87331 -28.92194,29.79676 l -17.44325,2.91607 c -1.61708,0.26535 -2.78346,1.61707 -2.78346,3.26062 0,1.61714 1.16638,2.9956 2.75699,3.28721 l 18.34456,3.18114 c 23.9381,3.89692 23.9381,3.89692 27.83501,28.57731 l 2.86307,17.25772 c 0.26535,1.61708 1.64361,2.81 3.26068,2.81 1.61707,0 2.99554,-1.16645 3.26068,-2.78352 l 3.28715,-19.3785 c 3.6053,-22.98378 3.6053,-22.98378 27.41085,-26.66855 l 18.34464,-2.9956 c 1.61707,-0.26535 2.78345,-1.67007 2.78345,-3.28721 0,-1.64355 -1.19291,-3.02207 -2.80999,-3.26062"
       style="fill:#ffffff;fill-opacity:1;fill-rule:nonzero;stroke:none;stroke-width:6.78644323" />
    <path
       id="path492"
       d="M 1583.6294,7.2772837 1573.5823,5.713211 c -13.2017,-1.9616904 -13.2017,-1.9616904 -15.19,-14.7658062 l -1.7496,-10.6568228 c -0.2654,-1.590603 -1.6436,-2.756989 -3.2872,-2.756989 -1.6171,0 -2.9956,1.192916 -3.2606,2.783459 l -1.5111,9.35789 c -2.1208,13.8379695 -2.1208,13.8379695 -15.4021,15.9587303 l -10.0735,1.6701421 c -1.5907,0.2382073 -2.7571,1.6170736 -2.7571,3.2341476 0,1.61708 1.14,2.995605 2.7305,3.287154 l 10.5773,1.82922 c 12.7246,2.067692 12.7246,2.067692 14.8189,15.242957 l 1.6171,9.914586 c 0.2917,1.617073 1.6435,2.809998 3.2606,2.809998 1.6436,0 3.0221,-1.166454 3.2872,-2.783528 l 1.8822,-11.160511 c 1.9087,-12.141357 1.9087,-12.141357 14.5538,-14.103041 l 10.5507,-1.749681 c 1.6171,-0.265352 2.81,-1.643543 2.81,-3.287154 -0.027,-1.617074 -1.1929,-2.9955991 -2.81,-3.2606783"
       style="fill:#ffffff;fill-opacity:1;fill-rule:nonzero;stroke:none;stroke-width:6.78644323" />
    <path
       id="path496"
       d="m 1832.66,-1160.3886 -10.0471,-1.5641 c -13.2017,-1.9881 -13.2017,-1.9881 -15.1899,-14.7657 l -1.7497,-10.657 c -0.2653,-1.5905 -1.6435,-2.7569 -3.2872,-2.7569 -1.6171,0 -2.9955,1.1929 -3.2607,2.7835 l -1.4845,9.3579 c -2.1472,13.838 -2.1472,13.838 -15.4285,15.9322 l -10.0471,1.6701 c -1.617,0.2654 -2.7835,1.6436 -2.7835,3.2607 0,1.6171 1.1399,2.9956 2.7305,3.2872 l 10.5772,1.8292 c 12.7512,2.0942 12.7512,2.0942 14.7924,15.2164 l 1.6435,9.9411 c 0.2918,1.6171 1.6436,2.7836 3.2607,2.7836 1.6171,0 3.0222,-1.1401 3.2872,-2.7571 l 1.9088,-11.1605 c 1.9086,-12.1679 1.9086,-12.1679 14.5537,-14.1296 l 10.5508,-1.7231 c 1.5905,-0.2654 2.7835,-1.6437 2.7835,-3.2872 -0.027,-1.6437 -1.193,-2.9956 -2.8101,-3.2607"
       style="fill:#ffffff;fill-opacity:1;fill-rule:nonzero;stroke:none;stroke-width:6.78644323" />
    <path
       id="path500"
       d="m 1810.5246,-1453.6902 -10.0471,-1.564 c -13.2017,-1.9883 -13.2017,-1.9883 -15.19,-14.7659 l -1.7497,-10.6569 c -0.2652,-1.5904 -1.6436,-2.7569 -3.2871,-2.7569 -1.6171,0 -2.9955,1.193 -3.2606,2.7836 l -1.4846,9.3578 c -2.1472,13.838 -2.1472,13.838 -15.4285,15.9322 l -10.0471,1.6701 c -1.6171,0.2654 -2.7836,1.6435 -2.7836,3.2608 -0.027,1.6169 1.1399,2.9954 2.757,3.2871 l 10.5508,1.8291 c 12.7246,2.0678 12.7246,2.0678 14.7924,15.2165 l 1.6436,9.941 c 0.2918,1.6171 1.6435,2.7836 3.2606,2.7836 1.6172,0 3.0221,-1.1399 3.2871,-2.7569 l 1.9088,-11.1872 c 1.9087,-12.1412 1.9087,-12.1412 14.5271,-14.103 l 10.5774,-1.7231 c 1.5905,-0.2653 2.7835,-1.6436 2.7835,-3.2871 -0.027,-1.6437 -1.193,-2.9957 -2.81,-3.2608"
       style="fill:#ffffff;fill-opacity:1;fill-rule:nonzero;stroke:none;stroke-width:6.78644323" />
    <path
       id="path504"
       d="m 1564.2509,79.224171 -10.0205,-1.564073 c -13.2284,-1.961691 -13.2284,-1.961691 -15.1901,-14.765806 l -1.7761,-10.656823 c -0.2653,-1.590535 -1.6436,-2.756989 -3.2606,-2.756989 -1.6436,0 -2.9957,1.192917 -3.2607,2.783527 l -1.5112,9.357822 c -2.1471,13.838038 -2.1471,13.838038 -15.4284,15.958798 l -10.0471,1.670075 c -1.617,0.238881 -2.7835,1.617073 -2.7835,3.234146 0,1.617073 1.1665,2.995606 2.7569,3.287224 l 10.5774,1.829143 c 12.7245,2.067761 12.7245,2.067761 14.7923,15.216495 l 1.6436,9.94106 c 0.2653,1.61707 1.6171,2.78352 3.2607,2.81 1.617,0 2.9955,-1.1664 3.2606,-2.78346 l 1.9088,-11.16059 c 1.9086,-12.141352 1.9086,-12.141352 14.5537,-14.103036 l 10.5508,-1.749612 c 1.5905,-0.265352 2.7835,-1.643612 2.7835,-3.287224 -0.027,-1.643603 -1.193,-3.022068 -2.8101,-3.260677"
       style="fill:#ffffff;fill-opacity:1;fill-rule:nonzero;stroke:none;stroke-width:6.78644323" />
    <path
       id="path508"
       d="m 1550.4129,151.17113 -10.0205,-1.56407 c -13.2283,-1.96177 -13.2283,-1.96177 -15.1901,-14.76582 l -1.7761,-10.65688 c -0.2653,-1.59055 -1.6435,-2.757 -3.2606,-2.757 -1.6436,0 -3.0221,1.19293 -3.2608,2.78353 l -1.511,9.3579 c -2.1472,13.83796 -2.1472,13.83796 -15.4285,15.93219 l -10.0472,1.67015 c -1.5905,0.29181 -2.7834,1.64353 -2.7834,3.26061 0,1.61714 1.1399,2.9956 2.7569,3.28722 l 10.5509,1.82915 c 12.7245,2.09423 12.7245,2.09423 14.8188,15.21649 l 1.6435,9.94106 c 0.2654,1.61707 1.6436,2.78352 3.2608,2.81 1.6171,0 2.9956,-1.16639 3.2606,-2.78346 l 1.9087,-11.16052 c 1.9087,-12.14142 1.9087,-12.14142 14.5538,-14.10312 l 10.5508,-1.7496 c 1.5905,-0.26535 2.7835,-1.64361 2.7835,-3.28722 0,-1.64354 -1.193,-3.02207 -2.8101,-3.26061"
       style="fill:#ffffff;fill-opacity:1;fill-rule:nonzero;stroke:none;stroke-width:6.78644323" />
    <path
       id="path512"
       d="m 1402.8078,328.73204 c -41.0102,-85.09562 -280.6565,-24.49486 -496.20564,79.31655 -215.52259,103.83788 -412.27643,253.51078 -371.29269,338.6064 31.91753,66.22082 177.66698,35.65535 261.72872,11.53166 l 2.22678,-0.63589 c -3.04859,-2.9426 -6.09712,-5.93814 -9.03972,-9.03975 -5.19588,-5.40798 -10.0206,-10.97497 -14.71284,-16.54195 -109.08676,28.49776 -188.29724,28.68331 -202.00267,0.26535 C 553.4685,690.58791 679.12376,558.49087 929.32083,437.97843 1179.5179,317.43959 1361.1348,301.48081 1381.1761,343.1273 c 1.4314,2.96907 2.1472,6.38882 2.1472,10.17967 0,28.04708 -38.0147,75.44618 -101.7701,127.06026 2.0942,10.47129 3.6053,21.20764 4.6126,32.18261 l 2.0677,-1.59061 c 66.8571,-52.83354 141.0308,-127.32534 114.5743,-182.22659"
       style="fill:#ff2840;fill-opacity:1;fill-rule:nonzero;stroke:none;stroke-width:6.78644323" />
  </g>
</svg>